<?xml version="1.0" encoding="UTF-8" standalone="no"?>
<!-- Created with Inkscape (http://www.inkscape.org/) -->

<svg
   width="4166.4556mm"
   height="3660.0994mm"
   viewBox="0 0 4166.4556 3660.0994"
   version="1.1"
   id="svg1"
   xmlns:xlink="http://www.w3.org/1999/xlink"
   xmlns="http://www.w3.org/2000/svg"
   xmlns:svg="http://www.w3.org/2000/svg">
  <defs
     id="defs1">
    <linearGradient
       id="linearGradient1640">
      <stop
         style="stop-color:#0000e7;stop-opacity:1;"
         offset="0"
         id="stop1640" />
      <stop
         style="stop-color:#090088;stop-opacity:0;"
         offset="1"
         id="stop1641" />
    </linearGradient>
    <filter
       style="color-interpolation-filters:sRGB"
       id="filter1331"
       x="-0.0082895144"
       y="-0.0041180599"
       width="1.0157315"
       height="1.0114336">
      <feFlood
         result="flood"
         in="SourceGraphic"
         flood-opacity="1.000000"
         flood-color="rgb(7,0,100)"
         id="feFlood1330" />
      <feGaussianBlur
         result="blur"
         in="SourceGraphic"
         stdDeviation="6.191950"
         id="feGaussianBlur1330" />
      <feOffset
         result="offset"
         in="blur"
         dx="-1.692308"
         dy="11.538462"
         id="feOffset1330" />
      <feComposite
         result="comp1"
         operator="in"
         in="flood"
         in2="offset"
         id="feComposite1330" />
      <feComposite
         result="comp2"
         operator="over"
         in="SourceGraphic"
         in2="comp1"
         id="feComposite1331" />
    </filter>
    <filter
       style="color-interpolation-filters:sRGB"
       id="filter1333"
       x="-0.0046958827"
       y="-0.006971077"
       width="1.0089117"
       height="1.0193548">
      <feFlood
         result="flood"
         in="SourceGraphic"
         flood-opacity="1.000000"
         flood-color="rgb(7,0,100)"
         id="feFlood1331" />
      <feGaussianBlur
         result="blur"
         in="SourceGraphic"
         stdDeviation="6.191950"
         id="feGaussianBlur1331" />
      <feOffset
         result="offset"
         in="blur"
         dx="-1.692308"
         dy="11.538462"
         id="feOffset1331" />
      <feComposite
         result="comp1"
         operator="in"
         in="flood"
         in2="offset"
         id="feComposite1332" />
      <feComposite
         result="comp2"
         operator="over"
         in="SourceGraphic"
         in2="comp1"
         id="feComposite1333" />
    </filter>
    <radialGradient
       xlink:href="#linearGradient1640"
       id="radialGradient1641"
       cx="2105.4019"
       cy="506.63644"
       fx="2105.4019"
       fy="506.63644"
       r="425"
       gradientUnits="userSpaceOnUse"
       gradientTransform="matrix(2.9411764,0,0,2.3529411,-4187.7458,-609.83963)" />
    <clipPath
       clipPathUnits="userSpaceOnUse"
       id="clipPath2112">
      <path
         id="path2113"
         style="fill:#ff0000;fill-opacity:1;fill-rule:nonzero;stroke:none;stroke-width:0.264583"
         d="M 754.61233,-417.75383 V 1582.2461 h 142.11898 c -0.0177,-0.6447 -0.11631,-1.2814 -0.1292,-1.9265 0.82082,-10.6379 1.05908,-21.337 2.4624,-31.9139 0.85019,-6.4079 2.4837,-12.7044 4.28138,-18.9135 6.99749,-24.1693 17.41448,-44.7386 33.49874,-62.897 -6.83223,-3.2903 -13.22644,-6.6705 -21.77489,-12.6741 -18.73001,-13.1541 -34.21528,-29.9302 -46.2716,-49.3195 -9.98564,-19.4985 -14.18855,-24.5611 -18.9756,-45.7419 -6.48978,-28.7149 -4.13785,-57.9474 4.269,-85.9358 2.29719,-6.471 4.3267,-13.0437 6.89157,-19.4133 11.45744,-28.4535 29.30755,-55.8453 53.23705,-75.4001 -22.89881,-29.747 -2.79098,-75.9023 60.05939,-69.6107 0.40865,0.041 10.16545,-0.9225 15.48381,-1.247 8.15912,-0.4567 16.32764,-0.7067 24.49724,-0.8723 9.8181,-0.1416 19.6377,-0.1569 29.4566,-0.1839 13.4521,-0.026 26.9019,-0.1162 40.351,0.186 17.9312,0.6245 35.8647,1.1608 53.8034,1.5074 14.2747,0.3368 28.5583,0.1945 42.8269,0.7333 14.2178,0.7866 28.4513,1.2148 42.6847,1.5932 11.56,0.2336 23.112,1.0994 34.6082,2.3151 2.7965,0.3875 5.6226,0.4209 8.429,0.6914 0.5946,0 1.1892,-0.01 1.7838,-0.01 9.9835,-0.1712 19.9837,0.2516 29.96,-0.2016 7.8172,-0.073 15.5271,-1.2307 23.258,-2.2391 9.9125,-1.3746 19.9294,-1.607 29.9186,-1.8619 10.8346,-0.2471 21.6723,-0.2981 32.5091,-0.3431 11.033,-0.038 22.0657,-0.047 33.0988,-0.057 11.0805,-0.01 22.1614,-0.01 33.2419,-0.01 9.7369,0 19.4737,10e-5 29.2106,0 13.249,-0.072 26.501,0.1831 39.7459,-0.1871 12.634,-0.5063 25.2609,-1.1469 37.9,-1.5131 13.8197,-0.5366 27.6275,-0.3541 41.4352,0.3303 13.0002,0.9512 25.9587,2.3505 38.9351,3.5641 11.0211,1.4443 22.0299,2.8264 33.124,3.5429 9.295,0.4342 18.5931,1.0463 27.8939,0.5778 8.8988,-0.6095 17.8114,-0.9422 26.7266,-1.1845 12.4034,-0.297 24.8106,-0.326 37.2168,-0.371 15.5313,-0.044 31.0628,-0.059 46.5941,-0.069 13.2559,-0.011 26.5118,-0.011 39.7676,-0.011 12.8005,-0.3491 25.5287,0.1874 38.255,1.5517 8.6198,1.0814 17.2632,1.8945 25.938,2.3477 10.6735,0.3637 21.3417,0.6052 32.0073,1.1803 10.4612,0.6113 20.9265,1.1302 31.4007,1.4548 11.7647,0.2894 23.5336,0.3316 35.3012,0.3885 11.4187,0.062 22.8273,-0.7078 34.2325,-1.2092 9.9263,-0.1787 19.8148,-0.8029 29.7135,-1.5059 11.3728,-0.7872 22.7671,-1.168 34.1617,-1.4556 10.3908,-0.2539 20.7851,-0.3017 31.1785,-0.3447 17.4719,-0.2 34.9452,0.3266 52.3885,1.2966 14.1567,0.9945 28.3176,1.8858 42.4982,2.4514 15.0415,0.5895 30.0965,0.6145 45.1471,0.6925 18.6663,0.077 37.3327,0.1141 55.9991,0.1391 11.3562,0.013 22.7126,0.023 34.0688,0.023 9.9065,0 19.8131,0 29.7196,0 13.7177,0 27.4352,0 41.153,0 13.2866,10e-5 26.573,0 39.8596,0 h 36.6763 42.7824 34.3742 28.9791 c 13.3834,-0.2379 26.7487,0.2753 40.1168,0.8331 15.3501,0.5855 30.7083,0.9011 46.0671,1.1456 13.7002,0.1987 27.4024,0.2506 41.1039,0.2946 12.3264,0.034 24.6522,0.045 36.9787,0.055 11.9591,0.01 23.9186,0.01 35.878,0.01 14.1208,0 28.2419,-2e-4 42.3627,0 12.8664,2e-4 25.7328,0 38.599,0 h 29.3203 c 10.6212,0 21.2397,-0.097 31.8564,0.231 13.7194,0.324 27.3772,1.6321 41.0488,2.713 10.5386,0.5737 21.0523,1.3948 31.5666,2.3043 8.9718,0.4585 17.8678,1.6685 26.7761,2.7641 5.3541,0.6056 10.7487,0.7218 16.1298,0.9013 91.6411,3.0575 89.3069,94.6697 -0.5882,93.4129 18.8312,8.7524 36.934,18.9289 52.1716,33.3245 23.1593,22.3004 40.748,45.0609 52.5844,75.4404 2.1032,6.535 4.3831,13.0159 6.31,19.605 0.9975,3.4098 1.683,6.9038 2.4572,10.371 4.4307,19.8398 7.6441,39.9196 9.7901,60.1358 4.045,40.4234 6.0127,81.0366 2.9623,121.6272 -0.6609,8.2108 -1.17,16.4349 -1.9825,24.6321 -0.4059,4.0962 -1.0237,8.1667 -1.4981,12.2551 h 50.0269 V -417.75367 H 3129.044 c 0.7506,4.87114 1.3486,9.78025 2.2397,14.61667 -11.2557,2.9509 -22.3896,6.40871 -33.7664,8.85269 -8.1521,1.75141 -22.1115,3.96137 -34.6758,6.07248 -0.5934,28.37045 -2.4714,39.21964 -13.2778,43.2444 5.9182,2.50788 16.4994,7.02993 19.5736,9.65317 7.03,5.99929 12.8127,13.32206 19.2193,19.98326 -7.4033,22.80187 -9.4665,48.09945 -22.2099,68.40565 -1.643,2.61828 -10.8905,5.40609 -21.0637,7.93492 13.4101,1.4766 26.7681,3.31471 39.9245,6.2823 11.0128,2.48408 36.5742,9.39676 44.6186,17.72295 9.5792,9.91526 14.7595,23.2905 22.139,34.93585 -4.8932,14.82416 -6.9707,30.89844 -14.6807,44.47274 -3.4748,6.11826 -11.2517,8.52288 -17.3813,11.97756 -3.8502,2.16989 -8.1745,3.38154 -12.3647,4.78679 -3.528,1.18318 -7.1819,1.92947 -10.7786,2.87889 -1.9656,8.36568 -4.3961,18.803758 -6.6358,37.363615 4.926,30.475949 10.6344,35.704375 -2.7315,36.195725 0,0.08611 -0.013,0.140073 -0.016,0.226343 -0.4207,-0.01513 -0.8374,-0.07776 -1.2578,-0.09457 -3.3116,0.0427 -7.5169,-0.06153 -13.066,-0.136425 -13.2027,-0.212529 -26.4062,-0.468728 -39.5999,-1.020609 -12.0348,-0.522891 -24.0646,-1.309026 -36.1183,-1.034047 h -43.389 -43.8118 c -15.3432,0 -30.6861,5e-6 -46.0293,0 -11.9396,-5e-6 -23.8794,-5.29e-4 -35.819,-5.29e-4 -11.665,-3.7e-5 -23.3297,2.64e-4 -34.9943,0 -11.6033,-2.65e-4 -23.2072,-7.94e-4 -34.8102,-0.0026 -10.1396,-0.0021 -20.2793,-0.0056 -30.4189,-0.01707 -14.1012,-0.01757 -28.2019,-0.04554 -42.3032,-0.108518 -15.2191,-0.07527 -30.448,-0.05055 -45.6572,-0.654225 -11.1984,-0.566372 -22.3876,-1.329312 -33.5308,-2.603976 -10.4826,-1.119267 -20.9737,-2.142509 -31.4637,-3.188952 -10.6879,-0.497245 -21.3721,-0.520856 -32.0714,-0.439766 -13.5791,5.29e-4 -27.1585,0.0013 -40.7376,0.0036 -13.3994,0.0029 -26.7987,0.0071 -40.198,0.02222 -14.4642,0.01762 -28.9283,0.03262 -43.3922,0.130226 -13.2434,0.09634 -26.4889,0.181536 -39.7268,0.608232 -13.7261,0.492739 -27.4413,1.268701 -41.1737,1.576131 -14.586,0.0016 -29.1721,0.0032 -43.7581,0.01188 -12.0459,0.0098 -24.092,0.0231 -36.1378,0.07338 -11.5668,0.06139 -23.1338,0.15368 -34.6987,0.380854 -13.8876,0.277815 -27.7738,0.648774 -41.6481,1.338419 -14.0285,0.595275 -28.0555,0.620373 -42.0956,0.531751 -12.2845,-1.19e-4 -24.5691,4.5e-5 -36.8536,-0.0011 -11.3704,-0.0011 -22.7407,-0.0019 -34.1111,-0.0078 -10.3848,-0.0075 -20.7693,-0.01921 -31.1541,-0.05013 -11.1237,-0.03754 -22.2481,-0.07548 -33.3701,-0.297138 -10.7459,-0.253635 -21.4864,-0.680776 -32.2146,-1.359609 -12.7209,-0.789686 -25.4235,-1.861021 -38.1671,-2.225704 -9.586,-0.472739 -19.1594,-0.995778 -28.7626,-0.736388 -12.5723,-2.65e-4 -25.1447,-1.7e-4 -37.7171,-0.0021 -12.5893,-0.0021 -25.1784,-0.0055 -37.7677,-0.01654 -14.1684,-0.01389 -28.3371,-0.02527 -42.5054,-0.09973 -12.2416,-0.08382 -24.4839,-0.190572 -36.7218,-0.520383 -10.4208,-0.327443 -20.8328,-0.823253 -31.2364,-1.511019 -11.4651,-0.51697 -22.9619,0.07092 -34.4345,-0.09612 -11.1536,0.05441 -22.3073,0.137493 -33.4595,0.331245 -14.2772,0.222274 -28.5648,0.678169 -42.8403,0.233061 -6.0974,-0.47062 -12.1211,-0.986221 -18.2604,-0.656291 -10.2412,4.7e-5 -20.4825,2.27e-4 -30.7237,5.29e-4 -9.8066,2.65e-4 -19.6128,-2.9e-5 -29.4194,0.0021 -10.4217,0.0026 -20.8435,0.0068 -31.2652,0.01654 -14.7088,0.01471 -29.4179,0.02841 -44.1265,0.0987 -12.5423,0.07152 -25.0856,0.143711 -37.6241,0.489376 -12.9058,0.352015 -25.8052,0.863841 -38.6989,1.529622 -12.0608,0.41538 -24.1288,0.254662 -36.1952,0.40876 -9.9728,0.101944 -19.9501,0.183111 -29.9109,0.733288 -10.9685,0.584353 -21.934,1.529493 -32.9267,1.387512 -13.6524,-0.0093 -27.3047,-0.02262 -40.9571,-0.05839 -17.0542,-0.05046 -34.1088,-0.09882 -51.1618,-0.330213 -12.7104,-0.228902 -25.417,-0.601961 -38.1082,-1.365808 -15.7444,-0.807382 -31.4883,-1.240163 -47.254,-1.384927 -13.3493,-0.359352 -26.6813,-1.040083 -40.0255,-1.52549 -15.0269,0.0011 -30.0539,0.0021 -45.0809,0.0083 -15.7936,0.0075 -31.58761,0.01598 -47.38117,0.05116 -15.24535,0.04119 -30.4904,0.106209 -45.73519,0.245464 -20.26835,0.187609 -40.53588,0.446141 -60.80456,0.595829 -2.29208,-0.0063 -21.30824,0.172617 -21.93716,-0.979784 -13.0743,-23.957298 -28.1355,-49.056581 -29.69069,-76.304901 -0.65318,-11.44463 25.51861,-16.41449 35.83294,-18.28467 9.50111,-1.40603 19.06035,-1.98879 28.61533,-2.70217 -20.43232,-12.55702 -26.03281,-33.72203 -16.41608,-51.60615 -8.32837,-8.52369 -11.52427,-23.08805 -8.51937,-54.45817 1.34006,-13.98901 18.18622,-21.7653 29.45299,-30.16455 3.93769,-2.9355 8.41812,-4.97758 13.05812,-6.71846 -19.45685,-21.10634 -27.15009,-26.91281 -40.00841,-56.75572 -4.77708,-11.08705 -7.73965,-22.9149 -10.41435,-34.68727 -2.42226,-10.66141 -4.18814,-21.4089 -5.48701,-32.2063 z m 104.83961,361.993927 c -0.4704,0.08497 -0.94271,0.161989 -1.40716,0.274402 -0.34404,0.08328 0.75049,0.04612 1.05318,-0.137459 0.0948,-0.05749 0.25699,-0.0806 0.35398,-0.136943 z M 1035.5487,1372.1969 c -0.3828,0.083 -0.7802,0.089 -1.1612,0.1793 -0.2866,0.068 -1.0807,0.4438 -0.7901,0.3958 0.8998,-0.15 1.2654,-0.435 1.9513,-0.5751 z m 1929.8563,35.4066 c 0.01,0.01 0,0.018 0.01,0.025 0.01,0.01 -0.011,-0.033 -0.01,-0.025 z m 0.01,0.025 c -0.9456,-1.5917 0.8324,3.7459 1.2486,5.6188 0.091,0.2635 0.186,0.5256 0.273,0.7906 -0.035,-0.1488 -0.039,-0.3033 -0.075,-0.4521 -0.4739,-1.9877 -0.4218,-4.191 -1.4465,-5.9573 z" />
    </clipPath>
    <clipPath
       clipPathUnits="userSpaceOnUse"
       id="clipPath2115">
      <path
         id="path2116"
         style="fill:#ff0000;fill-opacity:1;fill-rule:nonzero;stroke:none;stroke-width:0.264583"
         d="m 579.91544,-1189.7371 -1830.04984,3169.7392 856.60711,494.5623 c 1.35022,-7.1877 2.9632,-14.2343 4.91437,-23.4268 12.39642,-47.3597 39.32774,-88.1963 66.39784,-128.2398 21.64478,-31.0254 41.91133,-62.973 63.15523,-94.2665 19.41629,-28.1772 41.32812,-54.5055 65.66389,-78.5663 17.83855,-17.6371 24.47274,-22.7939 43.4292,-39.1349 24.92196,-19.3372 49.52058,-39.6346 76.73555,-55.7766 4.394134,-2.6063 8.7987,-5.2324 13.298159,-7.6583 -2.901638,-11.0212 -5.198668,-22.2253 -6.185461,-33.7592 -0.110359,-6.6123 -0.467246,-13.2249 -0.331129,-19.8366 0.556875,-27.0488 7.068415,-53.5297 14.757613,-79.3086 10.721963,-33.2479 21.083364,-66.9691 38.01245,-97.6929 6.029813,-8.8022 11.5856544,-17.9487 18.0893973,-26.4069 3.9402507,-5.1243 8.5032067,-9.7606 13.1646017,-14.239 18.144626,-17.4325 37.450635,-30.0375 60.459202,-37.721 -4.271731,-6.2656 -8.119149,-12.3901 -12.52052,-21.8636 -9.643608,-20.7567 -14.666209,-43.0279 -15.412648,-65.8477 1.101476,-21.879 -0.0071,-28.3648 6.437622,-49.1014 8.737129,-28.1127 25.390225,-52.2529 46.664973,-72.2881 5.22493,-4.4555 10.26886,-9.1329 15.67491,-13.3667 24.41442,-19.1204 53.93146,-34.1108 84.79718,-38.9147 -4.62108,-37.0282 34.72088,-66.7642 85.82467,-30.0201 0.33339,0.2397 9.26475,4.2839 14.03283,6.662 7.29435,3.6841 14.49345,7.5518 21.65135,11.4932 8.57354,4.7864 17.08526,9.6828 25.60216,14.5689 11.66291,6.7033 23.35584,13.3504 34.852,20.3367 15.2166,9.5064 30.47935,18.9375 45.84144,28.2071 12.19383,7.429 24.63495,14.4476 36.72248,22.0485 11.91966,7.7901 24.03219,15.2777 36.16947,22.7221 9.89444,5.9823 19.46593,12.5081 28.81407,19.3091 2.22641,1.7326 4.65545,3.1733 6.94884,4.8097 0.51837,0.2962 1.03827,0.5897 1.55603,0.8871 8.73155,4.8435 17.18048,10.2098 26.04682,14.8054 6.80663,3.845 14.06224,6.6978 21.2616,9.6899 9.27177,3.7658 18.06284,8.573 26.84119,13.3468 9.5066,5.2033 18.91785,10.578 28.32529,15.9574 9.57387,5.4836 19.13285,10.9923 28.6928,16.5002 9.60103,5.5315 19.19746,11.0717 28.79349,16.612 8.43238,4.8684 16.86468,9.7369 25.29713,14.6053 11.50986,6.5623 22.85897,13.4091 34.51449,19.7109 11.19451,5.8786 22.45004,11.6373 33.57892,17.6397 12.23649,6.4451 24.10319,13.507 35.71881,21.0036 10.78291,7.3238 21.30564,15.0149 31.93672,22.5541 8.82241,6.7614 17.6653,13.4628 26.91484,19.6303 7.83259,5.0236 15.57897,10.2027 23.86796,14.4473 8.01132,3.9216 15.89612,8.0898 23.73806,12.3375 10.89016,5.9445 21.64968,12.123 32.41625,18.2871 13.47251,7.7276 26.93076,15.4801 40.38625,23.2371 11.4855,6.6183 22.9653,13.2465 34.4452,19.8744 11.2601,6.098 22.0148,12.9268 32.3539,20.4715 6.9244,5.2463 14.0032,10.2721 21.2891,15.0021 9.0618,5.6516 18.1799,11.1949 27.1291,17.0258 8.754,5.76 17.5578,11.4419 26.4664,16.9601 10.0438,6.133 20.2149,12.054 30.3774,17.9872 9.8579,5.763 20.1231,10.8006 30.2509,16.069 8.6858,4.8084 17.5615,9.212 26.4854,13.5526 10.2428,5.0046 20.301,10.3721 30.3129,15.8202 9.1256,4.9756 18.1512,10.1313 27.1737,15.2907 15.231,8.5629 30.1001,17.7555 44.7215,27.3172 11.7628,7.9397 23.5808,15.792 35.5787,23.3721 12.7316,8.0313 25.7572,15.5804 38.7524,23.1733 16.1271,9.3996 32.2741,18.7651 48.4272,28.12 9.8282,5.6892 19.658,11.3764 29.4927,17.0545 8.5793,4.9532 17.1587,9.9065 25.7379,14.8598 11.8799,6.8588 23.7597,13.7176 35.6396,20.5765 11.5065,6.6434 23.0129,13.2865 34.5194,19.9298 l 31.7626,18.3382 37.0507,21.3912 29.7688,17.1871 25.0967,14.4895 c 11.7093,6.4857 23.0274,13.6127 34.3256,20.7799 13.0009,8.182 26.1436,16.1346 39.3225,24.0256 11.7653,7.0222 23.6059,13.9183 35.4497,20.807 10.658,6.1927 21.3268,12.3655 31.9968,18.5373 10.3519,5.9883 20.7093,11.9678 31.0664,17.9475 12.229,7.0604 24.4583,14.1208 36.6872,21.1813 11.1426,6.4334 22.2853,12.8665 33.4277,19.2996 l 25.3922,14.66 c 9.1971,5.313 18.4429,10.5355 27.4729,16.1283 11.7192,7.1402 22.8933,15.1021 34.1928,22.874 8.8399,5.7661 17.5343,11.7339 26.1851,17.7787 7.5408,4.8831 14.64,10.3791 21.807,15.782 4.334,3.2015 8.9477,5.9994 13.5179,8.8453 77.8355,48.4688 30.0071,126.6406 -47.2165,80.6034 11.9325,16.9958 22.5221,34.8608 28.5201,54.9466 8.9067,30.8926 12.7588,59.3981 7.8194,91.6256 -1.4461,6.7111 -2.7121,13.4636 -4.3378,20.1334 -0.8411,3.4517 -1.9943,6.8203 -3.0575,10.2101 -6.083,19.397 -13.3399,38.3935 -21.5895,56.9743 -16.7086,37.0301 -35.3109,73.1862 -58.2481,106.8134 -4.6778,6.7802 -9.2305,13.6481 -14.033,20.3407 -26.594,37.0652 -56.6535,71.5885 -88.6642,104.0499 -7.1634,7.0453 -14.2239,14.1966 -21.4897,21.1362 -40.1734,38.37 -83.223,73.7206 -128.9381,105.3004 -27.1717,17.6918 -34.3556,23.1789 -63.2102,38.6454 -36.5329,19.5819 -75.627,35.0401 -114.6752,48.7468 -2.4844,0.801 -4.9884,1.5535 -7.4771,2.343 8.0429,30.7638 15.5012,61.8152 16.7892,93.6579 0.3856,9.5344 -0.091,19.0841 -0.1359,28.6261 -0.9773,9.1641 -1.5293,18.3837 -2.9324,27.492 -6.6843,43.4048 -23.8199,89.2431 -60.6368,116.4364 -8.2409,6.0869 -17.4375,10.6197 -26.8364,14.8241 L 2358.1218,4063.2305 4188.1716,893.49124 3261.508,358.48178 c 0.494,2.04529 1.3515,4.00392 1.6901,6.08655 0.85,5.23337 -2.2547,10.38169 -3.9151,15.41713 -1.2586,3.81722 -3.0985,7.42097 -4.814,11.05591 -5.4133,11.47108 -11.8901,22.4416 -17.1402,33.99672 -14.4232,29.87811 -27.9276,60.18619 -42.5364,89.97618 -17.7966,36.86877 -36.5239,73.26985 -55.6772,109.45173 -23.5141,43.15213 -46.3553,86.69202 -71.1334,129.13851 -26.9598,44.23406 -55.7452,87.33441 -87.1559,128.55568 -10.4102,13.58124 -20.8987,27.1086 -31.5106,40.53596 4.7089,14.34836 4.8149,30.29757 0.7416,45.77859 -4.8712,18.51304 -11.7808,24.73562 -22.8885,39.40486 -4.8506,4.792 -10.3203,8.9224 -15.7413,13.0884 8.0323,14.8362 16.5958,29.6477 12.8908,45.0285 -5.0758,21.0693 -28.5187,26.6432 -52.9778,27.0146 15.3866,7.6247 30.6982,15.4006 46.1668,22.8576 5.522,2.662 11.1228,5.1631 16.5904,7.9352 3.46,1.7541 11.029,1.8527 10.1813,5.6382 -6.7298,30.0581 -20.6263,58.0487 -30.9389,87.0734 -11.2231,-3.0723 -22.5946,-5.6451 -33.6691,-9.2167 -7.9358,-2.5595 -21.1298,-7.625 -33.0663,-12.0789 -14.6995,24.2728 -21.7502,32.7294 -33.1212,30.8118 3.8714,5.1309 10.7739,14.338 12.1247,18.1467 3.0886,8.7108 4.435,17.9437 6.6527,26.9157 -17.8124,16.0454 -32.2479,36.922 -53.4371,48.136 -2.7321,1.446 -12.1347,-0.7636 -22.2092,-3.66 10.8746,7.9833 21.5248,16.2548 31.4345,25.4029 8.2956,7.6577 26.976,26.425 29.7793,37.6578 3.3383,13.3765 1.1365,27.5496 1.7053,41.325 -11.6504,10.3911 -21.4863,23.2733 -34.9504,31.174 -6.0684,3.5612 -14.0057,1.7552 -21.0414,1.6823 -4.4196,-0.046 -8.7702,-1.1587 -13.1014,-2.0368 -3.6471,-0.7394 -7.1847,-1.92 -10.7743,-2.8962 -5.885,6.2621 -13.2089,14.0864 -24.4284,29.0399 -10.972,28.856 -8.6426,36.2382 -20.4635,29.9807 -0.043,0.074 -0.081,0.1141 -0.1269,0.188 -0.3568,-0.2234 -0.6861,-0.4859 -1.0421,-0.7108 -2.8887,-1.6186 -6.4786,-3.8117 -11.2472,-6.6511 -11.3274,-6.7853 -22.6336,-13.6088 -33.784,-20.6837 -10.1607,-6.4702 -20.1852,-13.1654 -30.7611,-18.954 l -37.576,-21.6945 c -12.6477,-7.3021 -25.2948,-14.604 -37.9422,-21.9059 l -39.8639,-23.0155 c -10.34,-5.9698 -20.6795,-11.9399 -31.0195,-17.9097 -10.1021,-5.8325 -20.2044,-11.6647 -30.3066,-17.4975 -10.0483,-5.8015 -20.0974,-11.6041 -30.145,-17.4072 -8.7801,-5.0717 -17.5593,-10.1444 -26.335,-15.2242 -12.2032,-7.0659 -24.4001,-14.14 -36.5806,-21.2453 -13.1425,-7.6747 -26.3435,-15.2676 -39.2131,-23.395 -9.415,-6.0896 -18.723,-12.3447 -27.736,-19.0202 -8.5187,-6.2107 -17.0925,-12.3424 -25.6539,-18.4936 -9.0075,-5.7746 -18.2493,-11.1377 -27.5557,-16.4171 -11.7601,-6.7891 -23.5203,-13.5779 -35.2811,-20.3654 -11.6056,-6.6972 -23.2123,-13.3933 -34.8241,-20.08 -12.5352,-7.2168 -25.0689,-14.4358 -37.6439,-21.5833 -11.5172,-6.5382 -23.0306,-13.0871 -34.7085,-19.3367 -12.1333,-6.4362 -24.3988,-12.6216 -36.4451,-19.2216 -12.6328,-7.2917 -25.2658,-14.5835 -37.902,-21.869 -10.4369,-6.0145 -20.8753,-12.0257 -31.3325,-18.0051 -10.0479,-5.7302 -20.1114,-11.4337 -30.2404,-17.0195 -12.1659,-6.7032 -24.3768,-13.3248 -36.737,-19.6647 -12.4469,-6.4987 -24.6076,-13.4909 -36.7222,-20.5876 -10.6386,-6.1424 -21.2781,-12.2852 -31.9165,-18.4282 -9.8464,-5.6861 -19.6927,-11.37175 -29.5368,-17.062 -8.9897,-5.19889 -17.9772,-10.40132 -26.9552,-15.62049 -9.6147,-5.59435 -19.23,-11.18966 -28.7512,-16.94262 -9.1794,-5.5926 -18.2669,-11.33249 -27.2184,-17.28448 -10.6218,-7.04436 -21.0869,-14.32346 -31.9409,-21.01111 -8.0652,-5.20238 -16.0942,-10.44179 -24.5405,-15.01876 -10.8878,-6.28638 -21.776,-12.57249 -32.6629,-18.86037 -10.9016,-6.29648 -21.802,-12.59371 -32.6991,-18.89793 -12.2634,-7.09622 -24.5282,-14.19045 -36.7609,-21.33908 -10.5597,-6.1934 -21.1088,-12.40726 -31.5423,-18.81182 -8.8609,-5.49396 -17.63,-11.12932 -26.2959,-16.92674 -9.6707,-6.18029 -19.9219,-11.42006 -29.7741,-17.30105 -9.6865,-5.52967 -19.3868,-11.0343 -29.1419,-16.44261 -12.4755,-6.9461 -25.0768,-13.69512 -37.2173,-21.2183 -5.0451,-3.45627 -10.0039,-6.91465 -15.4858,-9.69856 -8.8691,-5.12056 -17.7385,-10.24107 -26.6078,-15.36141 -8.4928,-4.90307 -16.9848,-9.80625 -25.4785,-14.70759 -9.0268,-5.20858 -18.0546,-10.41591 -27.0848,-15.61832 -12.7456,-7.34167 -25.4909,-14.68436 -38.264,-21.97778 -10.8978,-6.20921 -21.7966,-12.41833 -32.8281,-18.38821 -11.3528,-6.14806 -22.7804,-12.15477 -34.2795,-18.02504 -10.6528,-5.67067 -21.0238,-11.84408 -31.5508,-17.74385 -8.6876,-4.89809 -17.368,-9.81599 -26.2693,-14.31987 -9.7913,-4.97824 -19.7602,-9.64238 -29.2091,-15.2617 -11.8187,-6.83429 -23.6359,-13.67223 -35.4412,-20.52944 -14.7441,-8.5708 -29.49,-17.14019 -44.1427,-25.86709 -10.893,-6.55342 -21.7104,-13.2296 -32.3194,-20.2367 -13.2313,-8.57142 -26.64909,-16.81788 -40.23021,-24.8261 -11.38114,-6.98586 -22.58654,-14.24134 -33.90033,-21.33386 -13.01419,-7.51252 -26.02941,-15.02564 -39.04627,-22.53384 -13.68138,-7.89033 -27.36267,-15.77939 -41.05793,-23.64573 -13.22345,-7.587 -26.459,-15.15347 -39.731,-22.65527 -17.64669,-9.97169 -35.32778,-19.88132 -52.95578,-29.88602 -1.98182,-1.15154 -18.54024,-10.5049 -18.5087,-11.81736 0.65597,-27.28479 0.16267,-56.55174 12.44002,-80.92707 5.15662,-10.23793 30.30699,-1.45607 40.17457,2.08148 8.93117,3.53287 17.50068,7.80757 26.13222,11.96726 -11.41639,-21.09086 -5.68362,-42.22028 11.5868,-52.90001 -2.95072,-11.54589 1.56372,-25.75699 19.85112,-51.42184 8.15499,-11.44484 26.63232,-9.75621 40.58929,-11.39679 4.87787,-0.57339 9.77957,-0.10141 14.66835,0.71097 -6.29694,-28.00708 -10.05673,-36.88247 -6.27091,-69.15635 1.40647,-11.99019 4.75428,-23.714956 8.32412,-35.247501 12.59838,-40.699586 34.01529,-77.7650089 57.12212,-113.252793 9.61817,-13.618292 18.86472,-27.507073 28.85432,-40.855254 41.0957,-54.911822 87.4349,-105.677342 136.2004,-153.908932 1.4436,-2.1655 2.8958,-4.32545 4.3369,-6.49267 23.3601,-35.13046 46.0582,-70.72923 71.1639,-104.66421 40.4074,-54.17939 82.7321,-106.97535 129.8674,-155.521 30.5241,-31.74634 62.0667,-63.17725 87.4202,-99.33682 -6.6184,-8.11178 -13.5656,-16.04271 -18.6032,-25.1815 -2.0647,-3.74549 -6.5251,-7.40261 -5.5507,-11.56699 4.7226,-20.18483 14.5844,-38.81038 21.8769,-58.21528 6.2423,-1.18375 12.4929,-2.31677 18.7276,-3.55099 z m 963.61936,556.34586 c 2.4975,9.7199 3.1322,20.13747 1.4689,31.97774 20.082,25.25594 40.0421,50.60853 59.2088,76.57019 42.4166,57.66772 83.3573,116.43605 127.4317,172.8703 46.9877,59.97205 94.7526,119.33086 141.3319,179.62341 27.2516,35.43732 54.5998,70.82984 80.3501,107.383896 15.6401,22.819488 31.4842,45.498165 46.7997,68.5387556 16.6534,25.3221964 32.5882,51.3204214 42.0679,80.3206124 8.4923,26.694566 15.104,53.946216 17.7741,81.902046 2.4689,21.00765 5.7445,41.86803 10.6975,62.45354 5.6078,25.76441 10.0631,51.80181 9.5773,78.27826 23.4127,0.4166 46.8158,0.18071 70.1604,-2.32039 37.6919,-2.76567 75.4184,-4.13857 113.2006,-4.9925 51.5226,-2.62912 102.9783,-6.40811 154.531,-8.43514 25.2464,-0.82414 33.6959,-1.28344 59.1545,-1.36199 39.7421,-0.12257 79.453,1.5103 119.1407,3.41239 50.9172,2.63803 101.817,5.57533 152.7509,7.87624 47.8467,2.13178 95.6882,4.79847 143.2647,10.52652 47.0423,5.2317 93.9554,12.0075 141.2379,14.74943 36.0194,0.90825 72.3528,1.42984 108.0157,-4.52627 13.0432,-2.81597 25.8497,-6.23745 38.8037,-9.40956 0.075,-0.0186 0.3354,-0.0736 0.4159,-0.0934 z m 1629.5955,976.93153 c -1.5724,0.86291 -2.3661,3.18805 -2.0862,4.95957 0.01,0.0534 0.026,0.10496 0.034,0.15818 0.038,-0.0817 0.083,-0.15995 0.1213,-0.24198 0.7497,-1.57898 3.4305,-5.65763 1.9308,-4.87564 z M 1544.0024,-318.33928 c 0.1973,-0.2316 0.2029,-0.20935 -0.5666,0.51726 -0.2865,0.38705 -0.4436,0.8565 -0.7214,1.2495 0.3097,-0.15686 0.6297,-0.293 0.937,-0.45497 0.2591,-0.13665 0.4719,-0.36696 0.6295,-0.61394 0.1641,-0.25729 -0.8605,0.612 -0.8628,0.30684 -1e-4,-0.28743 0.3876,-0.77268 0.5852,-1.00414 z m 1476.1671,869.22989 c -0.3682,-0.0851 -0.7543,0.0286 -1.1326,0.0425 -0.5363,0.10763 -1.0709,0.225 -1.6069,0.33488 0.8015,0.0197 1.6085,-0.0498 2.4059,-0.14985 0.1337,-0.0167 0.4647,-0.19685 0.3336,-0.2275 z M 1747.028,47.880336 c -0.051,0.08089 -0.1099,0.155467 -0.1614,0.236183 0.264,0.196842 0.5234,0.399144 0.7871,0.596395 -0.2121,-0.274996 -0.4138,-0.557701 -0.6257,-0.832592 z M 1252.5503,1.0349007 c -1.2303,0.6187961 -2.8379,1.9521224 -4.1764,2.7449456 0.442,0.1336891 0.8626,0.3313958 1.3056,0.4619914 1.3762,0.4057868 4.1525,-3.85157142 2.8708,-3.206937 z M 772.18627,381.43597 c -0.44993,-0.16167 -0.8974,-0.33109 -1.35583,-0.46595 -0.33958,-0.0999 0.62688,0.41519 0.9808,0.40755 0.11084,-0.002 0.26283,0.0587 0.37503,0.0584 z M 210.71303,1706.1317 c -0.37285,-0.1198 -0.71998,-0.3133 -1.09526,-0.4253 -0.28222,-0.084 -1.15788,-0.1563 -0.8822,-0.052 0.85424,0.32 1.31313,0.2564 1.9772,0.478 z m 1653.60177,995.5915 c -0.013,-1.9271 -1.1573,3.6766 -1.736,5.515 -0.053,0.2737 -0.1017,0.5482 -0.1588,0.8212 0.044,-0.1466 0.118,-0.2822 0.1615,-0.4289 0.5858,-1.9666 1.7474,-3.8554 1.7333,-5.9073 z m -218.0539,128.2248 v 0 c 0,0 0,0 10e-4,0 0,0 0,0 0,0 z m 0,0 c 0.055,0.1339 0.034,0.17 0.094,0.3121 0.3573,0.8511 0.8179,1.6572 1.2884,2.4515 0.1612,0.2721 0.7042,1.0339 0.6,0.7355 -0.2528,-0.723 -1.0709,-1.9635 -1.9823,-3.4991 z m -533.3582,290.4013 c -67.6664,-23.3663 -133.65078,-51.695 -198.48894,-81.9196 -19.9432,-9.2967 -39.69298,-19.0023 -59.53957,-28.5036 -123.84466,-61.4764 -244.54173,-129.0381 -365.68263,-195.6197 -68.91304,-37.8031 -137.32229,-76.5444 -206.87295,-113.1751 -42.99816,-22.6462 -54.15707,-28.0417 -97.14586,-49.7251 -40.56773,-19.8776 -81.17168,-39.8548 -123.097878,-56.7645 -18.156247,-7.3227 -34.368636,-13.51 -53.272074,-17.8815 -5.6271368,-1.3013 -11.4025169,-1.8482 -17.1038344,-2.7723 -22.9454686,-1.0998 -38.8877576,6.5276 -58.9074106,16.2571 -22.340258,11.1389 -44.053913,23.5087 -66.567393,34.2839 l 1324.02324,764.4252 c -1.9151,-10.4329 -3.3799,-21.1699 -4.2061,-33.2549 -1.3216,-19.3337 0.7163,-45.9288 3.8928,-65.3488 1.602,-9.7946 4.1519,-19.4108 6.2275,-29.1161 0.7601,-2.0923 1.4139,-4.2296 2.1144,-6.3473 -30.8557,-8.9298 -60.7892,-24.2514 -74.7435,-57.7993 -9.8767,-23.7449 -12.2829,-50.4656 -10.6298,-76.7384 z M -266.78691,2424.2189 c -0.80679,0.034 -1.61883,0.1359 -2.42394,0.149 -0.59481,0.01 1.19393,0.066 1.7848,-1e-4 0.21749,-0.026 0.42208,-0.1182 0.63918,-0.1459 z m 1616.76101,974.7844 v 0 z m 0,0 c -1.1244,3.0774 -2.4049,5.6334 -3.5836,9.318 -0.2989,0.9341 0.8751,-1.756 1.2783,-2.6502 1.5027,-3.333 1.1914,-2.807 2.3051,-6.6399 -5e-4,-0.01 0,-0.019 7e-4,-0.028 z" />
    </clipPath>
    <clipPath
       clipPathUnits="userSpaceOnUse"
       id="clipPath2118">
      <path
         id="path2119"
         style="fill:#ff0000;fill-opacity:1;fill-rule:nonzero;stroke:none;stroke-width:0.264583"
         d="m 1024.4098,-1315.2107 c 4.9688,6.2451 9.4019,13.2232 12.8959,21.8695 30.0195,11.8313 59.9817,23.8072 89.5614,36.7073 65.5677,28.7334 130.4075,59.1579 196.7942,85.9942 70.6785,28.4435 141.7237,55.9673 212.2088,84.8925 41.3193,17.0638 82.6997,34.0405 123.2772,52.8221 24.9544,11.9422 50.0153,23.6605 74.7991,35.9565 27.0835,13.60297 53.8825,28.15066 76.5922,48.52572 20.7019,18.87199 40.0536,39.16675 56.3438,62.0422 12.642,16.95868 25.9089,33.38655 40.4911,48.7376 17.7387,19.50876 34.6158,39.83016 47.4333,63.00234 20.4843,-11.34557 40.634,-23.25139 59.6005,-37.08971 31.2593,-21.24112 63.2449,-41.29336 95.5383,-60.92394 43.3053,-28.03816 85.9778,-57.03874 129.6102,-84.57054 21.452,-13.33693 28.5398,-17.95947 50.5483,-30.75678 34.3564,-19.97719 69.5635,-38.41859 104.8851,-56.61519 45.4146,-23.1739 90.9638,-46.0801 136.2243,-69.5544 42.5024,-22.0772 85.2676,-43.6884 129.3341,-62.516 43.3557,-18.9904 87.3715,-36.579 129.6903,-57.8456 31.6481,-17.2232 63.3743,-34.9381 91.2812,-57.9277 8.1648,-7.399 15.9637,-15.1061 23.8644,-22.7501 z m 1895.3686,26.1597 c 0,-0.01 0,0.03 0,0.024 0,-0.01 -0.01,-0.017 0,-0.024 z m 0,0.024 c -0.9136,1.5343 -0.453,3.9265 0.6702,5.3144 0.034,0.042 0.075,0.078 0.1084,0.1194 -0.011,-0.09 -0.011,-0.1799 -0.016,-0.2697 -0.1392,-1.7343 0.1307,-6.5274 -0.7626,-5.1641 z m -1741.8128,241.3465 c 0.053,-0.2848 0.07,-0.2783 -0.2283,0.7199 -0.055,0.4785 0.044,0.9635 0,1.4428 0.1897,-0.2907 0.3989,-0.5681 0.5839,-0.862 0.1562,-0.248 0.2253,-0.5542 0.2382,-0.8469 0.014,-0.3049 -0.4392,0.9602 -0.5938,0.6971 -0.1439,-0.2456 -0.051,-0.8485 0,-1.1509 z m 1713.0168,14.6803 c -0.3614,0.1104 -0.64,0.4019 -0.9593,0.6031 -0.4109,0.3614 -0.815,0.7306 -1.2243,1.0939 0.7038,-0.3837 1.3679,-0.8478 2.0085,-1.3332 0.1077,-0.081 0.3043,-0.4028 0.1751,-0.3638 z m -1354.0768,200.95104 c 0,0.0956 -0.018,0.18968 -0.022,0.28524 0.3271,0.0385 0.6533,0.084 0.9803,0.12301 -0.321,-0.13208 -0.6373,-0.27623 -0.958,-0.40825 z m -451.6532,206.66956 c -0.7561,1.15107 -1.4815,3.10949 -2.2443,4.46534 0.4496,-0.10519 0.9127,-0.14427 1.3617,-0.25267 1.3947,-0.33674 1.6704,-5.41182 0.8826,-4.21267 z M 1589.69,-53.78886 c -10.2412,5e-5 -20.4825,2.3e-4 -30.7236,5.29e-4 -9.8067,2.64e-4 -19.6129,5.29e-4 -29.4195,0.0026 -10.4217,0.0026 -20.8435,0.0068 -31.2652,0.01654 -14.7089,0.01471 -29.418,0.02841 -44.1266,0.0987 -12.5422,0.07152 -25.0856,0.143711 -37.6241,0.489376 -12.9058,0.352015 -25.8052,0.863841 -38.6988,1.529622 -12.0609,0.41538 -24.1289,0.254659 -36.1953,0.40876 -9.9728,0.101944 -19.95,0.183113 -29.9108,0.73329 -10.9686,0.584354 -21.934,1.529493 -32.9267,1.387512 -13.6524,-0.0093 -27.3048,-0.02262 -40.9571,-0.0584 -17.0543,-0.05046 -34.1088,-0.09882 -51.1618,-0.33021 -12.7104,-0.228907 -25.4171,-0.601964 -38.1083,-1.365809 -15.7444,-0.807381 -31.4883,-1.240165 -47.254,-1.384929 -13.3493,-0.359352 -26.6812,-1.04008 -40.0254,-1.525487 -15.0268,0.0011 -30.054,0.0021 -45.0809,0.0083 -13.2569,0.0063 -26.51384,0.02 -39.77076,0.04289 V 1108.3253 c 2.36847,-0.1788 8.74392,-0.7938 13.31857,-1.0728 8.15911,-0.4567 16.32759,-0.7067 24.49729,-0.8723 9.818,-0.1418 19.6376,-0.1572 29.4565,-0.184 13.4521,-0.026 26.902,-0.1161 40.351,0.186 17.9312,0.6247 35.8647,1.1607 53.8034,1.5075 14.2748,0.3367 28.5583,0.1945 42.8269,0.7333 14.2179,0.7867 28.4514,1.2148 42.6847,1.5932 11.56,0.2336 23.112,1.0994 34.6082,2.3151 2.7985,0.3878 5.6264,0.4212 8.4347,0.6919 0.5936,0 1.1871,-0.01 1.7807,-0.01 9.9835,-0.1712 19.9837,0.2516 29.96,-0.2016 7.8172,-0.073 15.5271,-1.2307 23.258,-2.2391 9.9125,-1.3747 19.9294,-1.607 29.9186,-1.8619 10.8347,-0.2471 21.6724,-0.2981 32.5091,-0.3431 11.0331,-0.038 22.0658,-0.047 33.0989,-0.057 11.0804,-0.01 22.1613,-0.01 33.2418,-0.01 9.7369,0 19.4737,2e-4 29.2106,0 13.2491,-0.072 26.5011,0.1832 39.7459,-0.187 12.634,-0.5063 25.2609,-1.147 37.9,-1.5131 13.8198,-0.5366 27.6275,-0.3542 41.4352,0.3303 13.0002,0.9511 25.9587,2.3504 38.9351,3.5641 11.0211,1.4442 22.0299,2.8264 33.1241,3.5429 9.2949,0.4342 18.593,1.0463 27.8938,0.5778 8.8988,-0.6096 17.8114,-0.9422 26.7266,-1.1845 12.4034,-0.297 24.8106,-0.326 37.2169,-0.371 15.5312,-0.044 31.0627,-0.059 46.5941,-0.069 13.2558,-0.011 26.5117,-0.011 39.7675,-0.011 12.8005,-0.349 25.5287,0.1875 38.255,1.5518 8.6198,1.0813 17.2633,1.8944 25.938,2.3477 10.6735,0.3636 21.3417,0.6052 32.0073,1.1803 10.4612,0.6113 20.9266,1.1301 31.4007,1.4547 11.7647,0.2894 23.5336,0.3316 35.3012,0.3886 11.4187,0.062 22.8274,-0.7079 34.2325,-1.2092 9.9263,-0.1787 19.8148,-0.803 29.7135,-1.5059 11.3728,-0.7873 22.7671,-1.168 34.1617,-1.4557 10.3908,-0.2538 20.7852,-0.3017 31.1785,-0.3447 17.4719,-0.1999 34.9452,0.3267 52.3885,1.2966 14.1567,0.9946 28.3176,1.8859 42.4982,2.4515 15.0416,0.5895 30.0966,0.6145 45.1471,0.6925 18.6663,0.077 37.3327,0.114 55.9991,0.139 11.3562,0.013 22.7126,0.023 34.0688,0.023 9.9065,0 19.8131,0 29.7197,0 13.7176,0 27.4352,0 41.153,0 13.2865,10e-5 26.5729,0 39.8595,0 h 36.6763 42.7825 34.3741 28.9791 c 13.3834,-0.2379 26.7488,0.2753 40.1169,0.8331 15.35,0.5855 30.7083,0.9011 46.0671,1.1456 13.7001,0.1987 27.4024,0.2506 41.1038,0.2946 12.3264,0.034 24.6523,0.045 36.9787,0.055 11.9592,0.01 23.9186,0.01 35.878,0.01 14.1208,0 28.2419,-2e-4 42.3627,0 12.8665,2e-4 25.7329,0 38.599,0 h 29.3204 c 10.6211,0 21.2397,-0.098 31.8563,0.231 12.6524,0.2988 25.2497,1.4795 37.8569,2.5022 V -44.216423 c -2.5284,-0.02355 -5.0515,-0.274762 -7.5817,-0.217041 h -43.389 -43.8118 c -15.3432,0 -30.6861,6e-6 -46.0293,0 -11.9396,-5e-6 -23.8794,-5.29e-4 -35.819,-5.29e-4 -11.665,-3.7e-5 -23.3305,2.65e-4 -34.9951,0 -11.6033,-2.64e-4 -23.2064,-7.93e-4 -34.8094,-0.0026 -10.1397,-0.0021 -20.2793,-0.0056 -30.4186,-0.01704 -14.1013,-0.01757 -28.2028,-0.04554 -42.304,-0.108521 -15.2191,-0.07527 -30.4475,-0.05055 -45.6568,-0.654222 -11.1984,-0.566373 -22.3875,-1.329312 -33.5307,-2.603976 -10.4825,-1.119267 -20.9738,-2.142509 -31.4637,-3.188955 -10.6879,-0.497242 -21.3722,-0.520856 -32.0715,-0.439766 -13.5791,5.29e-4 -27.1584,0.0013 -40.7375,0.0036 -13.3994,0.0029 -26.7988,0.0071 -40.1981,0.02222 -14.4642,0.01762 -28.9282,0.03262 -43.3921,0.130225 -13.2434,0.09634 -26.489,0.181536 -39.7269,0.608232 -13.7261,0.492739 -27.4413,1.268701 -41.1737,1.576131 -14.586,0.0016 -29.172,0.0032 -43.758,0.01188 -12.0459,0.0098 -24.092,0.0231 -36.1379,0.07338 -11.5668,0.06139 -23.1337,0.153683 -34.6986,0.380857 -13.8876,0.277815 -27.7738,0.648775 -41.6481,1.338419 -14.0285,0.595275 -28.0555,0.620374 -42.0956,0.531752 -12.2845,-1.19e-4 -24.5691,4.5e-5 -36.8536,-0.0011 -11.3703,-0.0011 -22.7407,-0.0019 -34.111,-0.0078 -10.3849,-0.0075 -20.7695,-0.01921 -31.1543,-0.05012 -11.1236,-0.03754 -22.2479,-0.07548 -33.3699,-0.297141 -10.7459,-0.253635 -21.4865,-0.680773 -32.2147,-1.359606 -12.7209,-0.789686 -25.4236,-1.861021 -38.1672,-2.225704 -9.5859,-0.472739 -19.1594,-0.995778 -28.7626,-0.736389 -12.5723,-2.64e-4 -25.1447,-1.69e-4 -37.717,-0.0021 -12.5893,-0.0021 -25.1785,-0.0055 -37.7678,-0.01654 -14.1684,-0.01389 -28.3371,-0.02527 -42.5053,-0.09974 -12.2417,-0.08382 -24.484,-0.190569 -36.7219,-0.52038 -10.4208,-0.327443 -20.8327,-0.823254 -31.2363,-1.511019 -11.4651,-0.51697 -22.962,0.07092 -34.4346,-0.09612 -11.1536,0.05441 -22.3073,0.137493 -33.4595,0.331245 -14.2771,0.222274 -28.5648,0.678169 -42.8402,0.233061 -6.0974,-0.47062 -12.1212,-0.986221 -18.2604,-0.656291 z M 1035.5487,1372.1969 c -0.3828,0.083 -0.7802,0.089 -1.1612,0.1793 -0.2866,0.068 -1.0807,0.4438 -0.7901,0.3958 0.8998,-0.15 1.2654,-0.435 1.9513,-0.5751 z m 1929.8563,35.4066 c 0.01,0.01 0,0.018 0.01,0.025 0.01,0.01 -0.011,-0.033 -0.01,-0.025 z m 0.01,0.025 c -0.9456,-1.5917 0.8324,3.7459 1.2486,5.6188 0.091,0.2635 0.186,0.5256 0.273,0.7906 -0.035,-0.1488 -0.039,-0.3033 -0.075,-0.4521 -0.4739,-1.9877 -0.4218,-4.191 -1.4465,-5.9573 z m -124.7333,220.0476 c 0.1183,0.09 0.1164,0.1312 0.2402,0.2253 0.7351,0.5584 1.537,1.0263 2.3416,1.4789 0.2757,0.155 1.1271,0.5433 0.8871,0.337 -0.5807,-0.5002 -1.91,-1.1659 -3.4689,-2.0412 z m 164.039,425.1042 c -0.2757,0.3219 -0.5305,0.6687 -0.8067,0.9902 -1.751,1.9359 -3.5433,3.8395 -5.3041,5.7676 2.0897,2.1151 4.0317,4.3695 6.1108,6.4967 z m -480.7401,93.0724 c -70.284,13.5975 -141.5925,22.0563 -212.8563,28.3001 -21.9197,1.9204 -43.8763,3.3899 -65.8146,5.0849 -137.9908,8.6822 -276.2983,10.5206 -414.5002,13.4297 -78.582,1.7181 -157.1968,2.3718 -235.7448,5.424 -48.5606,1.8869 -60.9223,2.7937 -108.9934,5.5097 -45.0715,3.0693 -90.2241,6.0705 -134.9881,12.3894 -19.3851,2.7365 -36.5191,5.4844 -55.0757,11.1503 -5.5239,1.6866 -10.799,4.1006 -16.1985,6.151 -20.4213,10.5202 -30.414,25.0969 -42.8868,43.5327 -12.6501,19.1129 -24.4068,38.8055 -37.0949,57.8844 h 1521.0426 c -5.3184,-6.6386 -10.5442,-13.6773 -15.8745,-21.6065 -10.8114,-16.0826 -22.344,-40.1337 -29.3031,-58.5401 -3.51,-9.2834 -6.1098,-18.8861 -9.1649,-28.329 -0.3879,-2.192 -0.8903,-4.3699 -1.3425,-6.5541 -31.1867,7.6944 -64.7707,9.3922 -93.6294,-12.684 -20.4259,-15.6253 -35.8701,-37.563 -47.5749,-61.1425 z m -1542.91151,86.9756 c -0.68146,0.4332 -1.334,0.9271 -2.02467,1.341 -0.5103,0.3058 1.06688,-0.5393 1.54408,-0.8945 0.17558,-0.1308 0.30647,-0.3139 0.48059,-0.4465 z m 1887.54841,35.8076 c 0.5651,3.2285 0.7342,6.0831 1.556,9.8645 0.2082,0.9585 -0.1199,-1.9582 -0.2183,-2.9342 -0.3649,-3.6377 -0.3715,-3.0267 -1.3232,-6.9029 0,-0.01 -0.011,-0.017 -0.013,-0.027 z" />
    </clipPath>
  </defs>
  <g
     id="layer5"
     transform="translate(92.64704,1320.3003)">
    <rect
       style="display:inline;fill:#02006c;fill-opacity:1;stroke-width:3.251"
       id="rect202"
       width="1920"
       height="1080"
       x="1030.5809"
       y="-30.250662"
       ry="0" />
    <ellipse
       style="fill:url(#radialGradient1641);fill-opacity:1;stroke-width:1.08884"
       id="path1640"
       cx="2004.6125"
       cy="582.24622"
       rx="1250"
       ry="1000"
       clip-path="url(#clipPath2112)" />
    <path
       id="path1183"
       style="display:inline;fill:#090088;fill-opacity:1;stroke-width:0.244461;filter:url(#filter1333)"
       d="m 3232.3652,365.09592 -2299.99995,1.6e-4 -3.6e-4,10.00002 2300.00031,1e-4 z m -25.0001,43.30131 -2299.99987,1.6e-4 -3.6e-4,10.00002 2300.00033,1e-4 z m -25,43.30132 -2299.99989,1.6e-4 -3.7e-4,10.00002 2300.00036,9e-5 z m -25,43.30131 -2299.99992,1.6e-4 -3.6e-4,10.00002 2300.00038,10e-5 z m -25,43.30131 -2299.99994,1.6e-4 -3.7e-4,10.00002 2300.00031,1e-4 z m -25.0001,43.30131 -2299.99987,1.6e-4 -10e-5,9.99958 2300.00007,5.4e-4 z m -25,43.30132 -2299.99989,1.6e-4 -1.1e-4,9.99957 2300.0001,5.4e-4 z m -25,43.30131 -2299.99992,1.6e-4 -1e-4,9.99957 2300.00032,10e-5 z m -25,43.30131 -2299.99994,1.6e-4 -1.1e-4,9.99957 2300.00035,10e-5 z m -25.0001,43.30131 -2299.99961,-2.8e-4 -3.6e-4,10.00002 2300.00037,9e-5 z m -25,43.30132 -2299.99963,-2.9e-4 -3.6e-4,10.00002 2300.00039,10e-5 z m -24.9998,43.30086 -2299.99986,1.6e-4 -3.6e-4,10.00002 2300.00032,10e-5 z m -25,43.30131 -2299.99988,1.6e-4 -3.6e-4,10.00002 2300.00034,10e-5 z m -25,43.30132 -2299.9999,1.6e-4 -3.7e-4,10.00002 2300.00037,9e-5 z m -25,43.30131 -2299.99993,1.6e-4 -3.6e-4,10.00002 2300.00039,10e-5 z m -25.0001,43.30135 -2299.99985,1e-4 -1.1e-4,9.9996 2300.00006,5e-4 z m -25,43.3013 -2299.99988,10e-5 -1e-4,9.9996 2300.00008,6e-4 z m -25,43.3013 -2299.9999,1e-4 -1.1e-4,9.9996 2300.00031,10e-5 z m -25,43.3013 -2299.99993,2e-4 -10e-5,9.9995 2300.00033,10e-5 z m -25,43.3013 -2299.99995,2e-4 -1.1e-4,9.9995 2300.00036,1e-4 z m -25.0001,43.3013 -2299.99962,-3e-4 -3.6e-4,10.0001 2300.00038,10e-5 z m -24.9997,43.3009 -2299.99994,10e-5 -3.7e-4,10.0001 2300.00031,10e-5 z m -25.0001,43.3013 -2299.99987,2e-4 -3.6e-4,10 2300.00033,1e-4 z m -25,43.3013 -2299.99989,2e-4 -3.6e-4,10 2300.00035,10e-5 z m -25,43.3013 -2299.99991,2e-4 -3.7e-4,10 2300.00038,10e-5 z m -25,43.3013 -2299.99994,2e-4 -3.6e-4,10 2300.0003,10e-5 z m -25.0001,43.3014 -2299.99986,10e-5 -1.1e-4,9.9996 2300.00007,5e-4 z m -25,43.3013 -2299.99989,1e-4 -1e-4,9.9996 2300.00009,5e-4 z m -25,43.3013 -2299.99991,10e-5 -1.1e-4,9.9996 2300.00032,10e-5 z m -25,43.3013 -2299.99994,10e-5 -1e-4,9.9996 2300.00034,1e-4 z m -25.0001,43.3013 -2299.9996,-3e-4 -3.7e-4,10 2300.00037,10e-5 z m -25,43.3013 -2299.99963,-3e-4 -3.6e-4,10 2300.00039,10e-5 z m -24.9997,43.3009 -2299.99995,10e-5 -3.7e-4,10.0001 2300.00032,1e-4 z m -25.0001,43.3013 -2299.99988,10e-5 -3.6e-4,10.0001 2300.00034,10e-5 z m -25,43.3013 -2299.9999,2e-4 -3.64e-4,10 2300.000364,10e-5 z m -25,43.3013 -2299.999925,2e-4 -3.64e-4,10 2300.000389,10e-5 z m -25,43.3013 -2299.999949,2e-4 -3.64e-4,10 2300.000313,10e-5 z m -25.0001,43.3013 -2299.9998735,2e-4 -1.055e-4,9.9996 2300.000079,5e-4 z m -25,43.3014 -2299.999898,10e-5 -1.05e-4,9.9996 2300.000303,10e-5 z m -25,43.3013 -2299.999922,10e-5 -1.06e-4,9.9996 2300.000328,1e-4 z m -25,43.3013 -2299.999947,10e-5 -1.05e-4,9.9996 2300.000352,1e-4 z m -25.0001,43.3013 -2299.999613,-3e-4 -3.64e-4,10 2300.000377,10e-5 z m -25,43.3013 -2299.99964,-3e-4 -3.6e-4,10 2300.0003,10e-5 z m -24.9998,43.3009 -2299.99986,10e-5 -3.7e-4,10 2300.00033,1e-4 z m -25,43.3013 -2299.99989,10e-5 -3.6e-4,10.0001 2300.00035,10e-5 z m -25,43.3013 -2299.99991,2e-4 -3.6e-4,10 2300.00037,10e-5 z m -25,43.3013 -2299.99993,2e-4 -3.7e-4,10 2300.0004,1e-4 z m -25.0001,43.3013 -2299.99986,2e-4 -1e-4,9.9995 2300.00006,6e-4 z m -25,43.3013 -2299.99988,2e-4 -1.1e-4,9.9996 2300.00009,5e-4 z m -25,43.3013 -2299.99991,2e-4 -1e-4,9.9996 2300.00031,10e-5 z"
       transform="rotate(-30)"
       clip-path="url(#clipPath2115)" />
    <path
       id="path1303"
       style="display:inline;fill:#090088;fill-opacity:1;stroke-width:0.244461;filter:url(#filter1331)"
       d="m 997.99815,-1300.3502 1991.85825,1150.00038 -4.9997,8.6604 L 992.99805,-1291.6897 Z m 10e-5,50.0001 1991.85815,1150.00028 -4.9997,8.660476 L 992.99805,-1241.6896 Z m 0,50.0001 1991.85815,1150.000256 -4.9997,8.6604 L 992.99795,-1191.6896 Z m -10e-5,50 L 2989.8564,-0.34974544 2984.8567,8.3107048 992.99795,-1141.6895 Z m 0,50 1991.85825,1150.000306 -4.9997,8.66045 L 992.99805,-1091.6895 Z m 10e-5,50.0001 L 2989.8564,99.650356 2984.8567,108.31032 992.99805,-1041.6894 Z m 0,50.0001 1991.85815,1150.00023 -4.9997,8.65994 L 992.99795,-991.68922 Z m -10e-5,50.00018 1991.85825,1150.0001 -4.9997,8.65993 L 992.99805,-941.68962 Z m 0,50 1991.85825,1150.00014 -4.9997,8.65994 L 992.99795,-891.68962 Z m 10e-5,50.0001 1991.85815,1149.99958 -4.9997,8.66045 L 992.99795,-841.68962 Z m 0,50.0001 1991.85815,1149.99953 -4.9997,8.66045 L 992.99795,-791.68952 Z m 0,49.9995 1991.85815,1150.00008 -4.9997,8.66045 L 992.99805,-741.68952 Z m 0,50 1991.85815,1150.00012 -4.9997,8.66045 L 992.99795,-691.68942 Z m 0,50.0001 1991.85815,1150.00007 -4.9997,8.66046 L 992.99795,-641.68942 Z m -10e-5,50 1991.85825,1150.00012 -4.9997,8.66045 L 992.99795,-591.68932 Z m 10e-5,50.0001 1991.85815,1150.00005 -4.9997,8.65996 L 992.99805,-541.68932 Z m 0,50.0001 1991.85825,1149.99999 -4.9998,8.65996 L 992.99795,-491.68922 Z m -10e-5,50 1991.85835,1150.00003 -4.9997,8.65996 L 992.99805,-441.68972 Z m 0,50 1991.85825,1150.00015 -4.9996,8.65987 L 992.99805,-391.68972 Z m 0,50 1991.85825,1150.00019 -4.9996,8.65988 L 992.99805,-341.68962 Z m 10e-5,50.0001 1991.85825,1149.99957 -4.9998,8.66052 L 992.99795,-291.68952 Z m -10e-5,49.9996 1991.85835,1150 -4.9998,8.66053 L 992.99805,-241.68942 Z m 10e-5,50 1991.85815,1150.00013 -4.9997,8.66043 L 992.99805,-191.68942 Z m 0,50.0001 1991.85815,1150.00007 -4.9997,8.66025 L 992.99795,-141.68942 Z m 0,50 1991.85815,1149.99992 -4.9997,8.6604 L 992.99795,-91.689444 Z m -10e-5,49.999976 1991.85825,1149.999944 -4.9997,8.6605 L 992.99805,-41.689344 Z m 10e-5,50.00019856 L 2989.8564,1149.6502 l -4.9997,8.6599 L 992.99805,8.3106948 Z m -10e-5,49.99999144 1991.85825,1149.999854 -4.9997,8.66 L 992.99805,58.310726 Z m 0,50.00002 1991.85835,1149.999934 -4.9998,8.6599 L 992.99805,108.31032 Z m 0,50.000054 1991.85835,1149.99988 -4.9998,8.66 L 992.99805,158.31035 Z m 10e-5,50.00008 1991.85815,1149.9994 -4.9996,8.6604 L 992.99795,208.31038 Z m 0,50.00002 1991.85815,1149.99938 -4.9996,8.6604 L 992.99795,258.3104 Z m -10e-5,49.99953 1991.85835,1149.99985 -4.9998,8.6606 L 992.99805,308.31056 Z m 10e-5,50.00008 1991.85825,1149.99987 -4.9998,8.6605 L 992.99795,358.31059 Z m 0,50.00002 1991.85815,1149.99995 -4.9997,8.6604 L 992.99795,408.31062 Z m -10e-5,50.00003 1991.85825,1149.99992 -4.9997,8.6605 L 992.99795,458.31064 Z m 0,50.00002 1991.85825,1150 -4.9997,8.6604 L 992.99805,508.31072 Z m 10e-5,50.00008 1991.85815,1149.99992 -4.9997,8.66 L 992.99805,558.31074 Z m -10e-5,50.00011 1991.85825,1149.99981 -4.9997,8.66 L 992.99805,608.31032 Z m 0,50.00003 1991.85825,1149.99988 -4.9997,8.6599 L 992.99805,658.31035 Z m 0,50.00002 1991.85835,1149.99986 -4.9998,8.66 L 992.99795,708.31037 Z m 10e-5,50.00008 1991.85815,1149.99938 -4.9996,8.6604 L 992.99795,758.3104 Z m 0,50.00003 1991.85815,1149.99935 -4.9996,8.6605 L 992.99805,808.31048 Z m 0,49.99958 1991.85815,1149.99987 -4.9996,8.6604 L 992.99805,858.3105 Z m 0,50.00002 1991.85825,1149.99985 -4.9998,8.6605 L 992.99795,908.31061 Z m -10e-5,50.00003 1991.85825,1149.99992 -4.9997,8.6605 L 992.99795,958.31064 Z m 0,50.00002 1991.85825,1150 -4.9997,8.6604 L 992.99795,1008.3105 Z m 10e-5,49.9999 1991.85815,1150.0001 -4.9996,8.6599 L 992.99805,1058.3106 Z m 0,50 1991.85815,1150.0001 -4.9997,8.66 L 992.99795,1108.3106 Z m 0,50.0001 1991.85815,1150.0001 -4.9997,8.6599 -1991.85865,-1150 z"
       clip-path="url(#clipPath2118)" />
  </g>
</svg>
